<?xml version="1.0" standalone="no"?>
<!DOCTYPE svg PUBLIC "-//W3C//DTD SVG 20010904//EN"
 "http://www.w3.org/TR/2001/REC-SVG-20010904/DTD/svg10.dtd">
<svg version="1.0" xmlns="http://www.w3.org/2000/svg"
 width="260.000000pt" height="260.000000pt" viewBox="0 0 260.000000 260.000000"
 preserveAspectRatio="xMidYMid meet">
<metadata>
Created by potrace 1.11, written by Peter Selinger 2001-2013
</metadata>
<g transform="translate(0.000000,260.000000) scale(0.100000,-0.100000)"
fill="#000000" stroke="none">
<path d="M1079 1986 c-1 -14 -2 -29 -3 -33 -1 -5 -6 -28 -11 -53 -5 -25 -9
-47 -10 -50 -1 -3 -5 -23 -9 -45 -13 -65 -46 -197 -62 -245 -20 -59 -112 -307
-129 -345 -37 -85 -265 -671 -265 -681 0 -24 107 -128 154 -150 27 -13 53 -21
57 -19 4 3 10 22 13 42 22 123 118 450 161 548 7 17 23 55 35 85 59 147 257
585 306 679 l44 83 -38 47 c-69 87 -138 137 -214 156 -25 6 -28 4 -29 -19z"/>
<path d="M1912 1999 c-12 -5 -22 -6 -22 -4 0 7 -114 -57 -152 -85 -83 -62
-276 -268 -395 -420 -31 -39 -99 -130 -111 -147 -7 -10 -39 -55 -72 -101 -48
-69 -57 -87 -50 -105 5 -12 33 -96 61 -187 112 -356 185 -509 269 -562 51 -32
162 -1 229 64 l29 28 -87 88 c-47 48 -113 128 -146 177 -59 89 -195 348 -195
372 0 22 116 166 206 257 164 164 361 300 545 375 106 43 113 54 81 118 -48
92 -134 153 -190 132z"/>
</g>
</svg>
